<?xml version="1.0" encoding="UTF-8" standalone="no"?>
<!-- Generator: Adobe Illustrator 15.0.2, SVG Export Plug-In . SVG Version: 6.00 Build 0)  -->

<svg
   xmlns:dc="http://purl.org/dc/elements/1.1/"
   xmlns:cc="http://creativecommons.org/ns#"
   xmlns:rdf="http://www.w3.org/1999/02/22-rdf-syntax-ns#"
   xmlns:svg="http://www.w3.org/2000/svg"
   xmlns="http://www.w3.org/2000/svg"
   xmlns:xlink="http://www.w3.org/1999/xlink"
   xmlns:sodipodi="http://sodipodi.sourceforge.net/DTD/sodipodi-0.dtd"
   xmlns:inkscape="http://www.inkscape.org/namespaces/inkscape"
   version="1.1"
   x="0px"
   y="0px"
   width="122.39169"
   height="214.68907"
   viewBox="0 0 122.3917 214.68907"
   enable-background="new 0 0 467.667 284.6"
   xml:space="preserve"
   id="svg18009"
   inkscape:version="0.48.2 r9819"
   sodipodi:docname="malawi.svg"><metadata
     id="metadata32867"><rdf:RDF><cc:Work
         rdf:about=""><dc:format>image/svg+xml</dc:format><dc:type
           rdf:resource="http://purl.org/dc/dcmitype/StillImage" /><dc:title /></cc:Work></rdf:RDF></metadata><defs
     id="defs32865">
	
	
	
		
	
	
	
	
		
	
	
	
		
	
	
	
	
	
		
	
	
	
	
	
	
	

		
		
		
		
		
		
		
		
		
		
		
		
		
		
		
		
	
			<defs
   id="defs30494">
				<rect
   height="182.714"
   width="127.47"
   y="29.063"
   x="6.6199999"
   id="SVGID_56_" />
			</defs>
			<clipPath
   id="SVGID_57_">
				<use
   height="284.60001"
   width="467.66699"
   y="0"
   x="0"
   style="overflow:visible"
   id="use30498"
   overflow="visible"
   xlink:href="#SVGID_56_" />
			</clipPath>
			
		
				
				
				
			
					
					
					
					
					
					
					
					
					
					
					
					
					
					
					
					
					
					
					
					
					
					
					
					
					
					
					
					
					
					
					
					
					
					
					
					
					
					
					
					
					
					
					
					
					
					
					
					
					
					
					
					
					
					
					
					
					
					
					
					
					
					
					
					
					
					
					
					
					
					
					
					
					
					
					
					
					
					
					
					
					
					
					
					
					
					
					
					
					
					
					
					
					
					
					
					
					
					
					
					
					
					
					
					
					
					
					
					
					
					
					
					
					
					
					
					
					
					
					
					
					
					
					
					
					
					
					
					
					
					
					
					
					
					
					
					
					
					
					
					
					
					
					
					
					
					
					
					
					
					
					
					
					
					
					
					
					
					
					
					
					
					
					
					
					
					
					
					
					
					
					
					
					
					
					
					
					
					
					
					
					
					
					
					
					
					
					
					
					
					
					
					
					
					
					
					
					
					
					
					
					
					
					
					
					
					
					
					
					
					
					
					
					
					
					
					
					
					
					
					
					
					
					
					
					
				</defs><sodipodi:namedview
     pagecolor="#ffffff"
     bordercolor="#666666"
     borderopacity="1"
     objecttolerance="10"
     gridtolerance="10"
     guidetolerance="10"
     inkscape:pageopacity="0"
     inkscape:pageshadow="2"
     inkscape:window-width="1189"
     inkscape:window-height="703"
     id="namedview32863"
     showgrid="false"
     fit-margin-top="0"
     fit-margin-left="0"
     fit-margin-right="0"
     fit-margin-bottom="0"
     inkscape:zoom="2.2740297"
     inkscape:cx="156.00266"
     inkscape:cy="120.3168"
     inkscape:window-x="0"
     inkscape:window-y="0"
     inkscape:window-maximized="0"
     inkscape:current-layer="svg18009" /><path
     d="M 14.64216,0.61324063 H 13.08609 V 3.5392406 h 1.55607 v 4.229 h 1.73059 1.55607 v -1.4601 h 1.9051 l 1.73059,1.4601 v 2.6060004 l 3.5426,2.8475 0.95395,2.5217 -1.81781,2.9289 3.28373,2.6817 v 1.5473 h 2.24827 l 1.12568,0.89 -0.52069,2.769 3.72005,5.2877 h 1.12267 v 1.463 l -2.33557,2.3559 -2.16391,2.8504 -3.19943,1.463 -5.27312,1.4659 v 0.8929 l 1.90217,1.1401 v 3.0918 l 2.24827,3.0045 -3.11506,7.0823 -1.29427,0.4072 -0.43046,2.9289 2.59438,1.2216 v 5.7706 1.3059 c 0,0 0.34617,2.193 0.43339,2.5188 0.0844,0.3199 -1.4717,3.0074 -1.4717,3.0074 l -0.17452,2.1174 2.33843,5.6979 2.07383,0.4043 1.55607,-0.8988 0.95402,0.8988 h 1.0383 l -0.43332,0.9714 c 0,0 -0.60498,-0.076 -0.86679,0 -0.25881,0.084 -1.38449,1.5474 -1.38449,1.5474 l -2.59145,2.6845 h -1.1256 -1.2129 l -0.51769,1.4689 -1.81495,0.8114 -1.12267,-0.7329 -1.03838,0.7329 -1.21283,-0.57 -3.11507,4.3948 h -0.43046 v 2.6031 l 2.07376,1.3816 -0.0843,1.2215 -1.38742,3.818999 0.17452,1.6317 c 0,0 1.64336,1.5415 -0.17452,2.6845 l -1.55607,2.1145 v 1.7103 l -1.20996,1.6287 -1.29719,0.6487 0.51776,1.303 -4.32504,1.5473 v 1.0529 c 0,0 5.53494,2.0331 2.24542,3.9062 -3.2838,1.8731 1.73344,1.9545 1.47464,1.7102 -0.26181,-0.2472 2.85033,1.3787 2.85033,1.3787 l 0.43339,2.2802 c 0,0 0.8638,-0.4071 0.8638,0 0,0.4072 0.34617,4.5519 2.59445,1.463 2.24827,-3.0888 2.68167,-1.7073 2.68167,-1.7073 l 1.98947,1.9517 2.16105,1.9516 -0.0844,1.7102 1.03545,1.8731 1.55607,0.4072 2.3355,5.1278 2.07383,1.1372 0.69221,1.1402 1.559,1.2186 0.7795,1.7888 1.20996,0.4101 0.77943,-3.1732 c 0,0 1.2129,-0.1629 2.16106,0.2414 0.95401,0.4101 3.02777,-0.8086 3.02777,-0.8086 h 1.89932 l 2.94341,0.2414 0.95109,-1.7102 h 3.89164 c 0,0 2.33557,-1.7888 3.54553,-1.2972 1.21283,0.4857 3.11214,4.2261 3.11214,4.2261 0,0 2.07383,1.0587 1.03831,3.9062 l 1.55612,2.9318 v 1.7887 l 0.5207,2.5217 -0.4334,3.1703 0.4334,1.7103 -0.4334,0.57 0.4334,1.623 v 3.0103 l -2.16111,0.733 -0.0873,1.6288 -2.33557,2.4373 c 0,0 0,0.3258 0,0.5701 0,0.2472 0.51776,1.9516 0.51776,1.9516 l -1.38448,2.5217 c 0,0 -1.64044,2.0331 -1.90218,2.1989 -0.25888,0.1629 -2.94348,0.9744 -2.68167,2.2745 0.25888,1.303 2.33557,3.7433 2.33557,3.7433 l 2.85326,1.7073 -0.4334,2.8474 0.52062,3.4147 1.46885,1.2216 h 1.81775 l 1.4718,1.5444 0.4305,1.9487 1.9021,1.1431 2.3356,1.2186 v 1.7888 l 2.51,0.9744 -0.4333,1.3873 2.5072,0.893 v 1.3059 l 4.7583,1.6259 c 0,0 1.2972,1.0587 1.3845,2.1988 0.084,1.1373 0,2.6003 0,2.6003 l -2.5072,1.303 0.8638,1.3815 0.2619,1.4659 h 2.7688 l 2.8504,0.6545 1.0384,-1.9546 -0.605,-1.4659 -0.4334,-1.3844 -0.3461,-2.5217 1.3845,-1.3816 -1.1227,-1.9516 v -1.9546 l -2.5072,-1.1372 c 0,0 -1.2972,-2.1989 0.2588,-3.659 1.5561,-1.4659 1.7306,-4.2319 1.7306,-5.2092 0,-0.9772 1.9023,-5.4476 5.5321,-5.2877 3.6328,0.1658 -0.5177,2.1989 4.4093,0.2472 4.9329,-1.9545 4.4152,-0.9772 5.535,-3.4175 1.1256,-2.4403 2.51,-18.6263 0,-23.0182 l 3.3739,-7.5709 -1.3845,-0.079 -0.084,-2.9231 0.605,-0.2472 v -3.0918 l -10.3776,-11.3841 c 0,0 -0.8639,-3.9061 -1.7306,-4.4733 -0.8638,-0.573 -7.0067,-7.0765 -7.0067,-7.0765 0,0 -6.9165,-8.7052 -9.7727,-8.9495 -2.8533,-0.2444 -6.0526,-0.4072 -6.0526,-0.4072 l -2.3356,-3.8219 c 0,0 -2.07379,-24.649799 -5.27315,-28.148799 0,0 0.52062,-2.0302 -0.60498,-3.7375 -1.12268,-1.7131 1.30011,-4.2319 1.30011,-4.2319 l 4.66822,-4.8805 1.6404,-6.6693 -0.3461,-1.2216 9.4266,0.2443 0.1716,-2.6846 c 0,0 -2.9377,-3.6589 -3.9761,-4.1476 -1.0383,-0.4886 -0.6922,1.3845 -1.9894,-1.5473 -1.2972,-2.9289 -3.1994,-4.1476 -3.1994,-4.1476 0,0 -1.2128,-3.3361 0.1745,-5.6164 1.3845,-2.2774 1.3845,-4.7962 1.2972,-5.2819 -0.087,-0.4915 -3.115,-5.7763 -3.115,-5.7763 l 0.3461,-3.0075 c 0,0 -0.9511,-1.7916 -0.5206,-2.3617 0.4334,-0.5643 0.2617,-1.8731 0.1745,-2.2803 -0.084,-0.4072 -0.7766,-3.0074 -0.7766,-3.0074 l -0.1774,-3.1703 -2.68163,-2.2745 -0.25888,-0.8988 -1.73058,-0.7329 -0.25881,-1.7073 -7.43718,-7.9694004 c 0,0 -5.18883,-1.7132 -4.75543,1.2157 0.43332,2.9319 -0.52062,3.9877 -3.19944,2.3618 -2.68167,-1.6288 -2.68167,-1.6288 -2.68167,-1.6288 l -2.94048,0.1658 -1.2129,-0.3287 h -1.98654 l -0.7795,0.8144 -1.90217,-0.2443 -0.86387,-1.8702 -1.29426,-0.1658 -2.07376,-1.2216 -4.41518,-0.079 -4.4937,-3.10629997 z"
     id="path32835"
     inkscape:connector-curvature="0"
     style="fill:#000000;stroke:#000000;stroke-width:1.22449553" /><g
     id="g46491"
     city_name="mzuzu"
     class=""><path
   sodipodi:type="arc"
   style="fill:#c8c8c8;fill-opacity:1;stroke:none"
   id="path46431"
   sodipodi:cx="79.814262"
   sodipodi:cy="95.737251"
   sodipodi:rx="5.9365983"
   sodipodi:ry="5.9365983"
   d="m 85.750861,95.737251 a 5.9365983,5.9365983 0 1 1 -11.873197,0 5.9365983,5.9365983 0 1 1 11.873197,0 z"
   transform="matrix(0.43617804,0,0,0.43617804,6.4767452,9.8601182)" /><rect
   y="51.982353"
   x="10.773828"
   height="10.9937"
   width="30.342613"
   id="rect46459"
   style="fill:#c8c8c8;fill-opacity:1;stroke:none" /><text
   xml:space="preserve"
   style="font-size:7.7382021px;font-style:normal;font-weight:normal;line-height:125%;letter-spacing:0px;word-spacing:0px;fill:#000000;fill-opacity:1;stroke:none;font-family:Sans"
   x="14.401028"
   y="59.944824"
   id="text46433"
   sodipodi:linespacing="125%"><tspan
     sodipodi:role="line"
     id="tspan46435"
     x="14.401028"
     y="59.944824"
     style="font-style:normal;font-variant:normal;font-weight:normal;font-stretch:normal;fill:#000000;fill-opacity:1;font-family:Arial;-inkscape-font-specification:Arial">Mzuzu</tspan></text>

</g><g
     id="g46497"
     city_name="lilongwe"
     class="selected"><path
   transform="matrix(0.43617804,0,0,0.43617804,0.32027251,85.057034)"
   d="m 85.750861,95.737251 a 5.9365983,5.9365983 0 1 1 -11.873197,0 5.9365983,5.9365983 0 1 1 11.873197,0 z"
   sodipodi:ry="5.9365983"
   sodipodi:rx="5.9365983"
   sodipodi:cy="95.737251"
   sodipodi:cx="79.814262"
   id="path46449"
   style="fill:#c8c8c8;fill-opacity:1;stroke:none"
   sodipodi:type="arc" /><rect
   style="fill:#c8c8c8;fill-opacity:1;stroke:none"
   id="rect46461"
   width="35.17984"
   height="10.9937"
   x="-8.8817842e-16"
   y="115.28047" /><text
   sodipodi:linespacing="125%"
   id="text46419"
   y="123.24094"
   x="1.847075"
   style="font-size:7.7382021px;font-style:normal;font-weight:normal;line-height:125%;letter-spacing:0px;word-spacing:0px;fill:#000000;fill-opacity:1;stroke:none;font-family:Sans"
   xml:space="preserve"><tspan
     style="font-style:normal;font-variant:normal;font-weight:normal;font-stretch:normal;fill:#000000;fill-opacity:1;font-family:Arial;-inkscape-font-specification:Arial"
     y="123.24094"
     x="1.847075"
     id="tspan46421"
     sodipodi:role="line">Lilongwe</tspan></text>

</g><g
     id="g46509"
     city_name="zomba"><path
   transform="matrix(0.43617804,0,0,0.43617804,45.174573,124.53275)"
   d="m 85.750861,95.737251 a 5.9365983,5.9365983 0 1 1 -11.873197,0 5.9365983,5.9365983 0 1 1 11.873197,0 z"
   sodipodi:ry="5.9365983"
   sodipodi:rx="5.9365983"
   sodipodi:cy="95.737251"
   sodipodi:cx="79.814262"
   id="path46453"
   style="fill:#c8c8c8;fill-opacity:1;stroke:none"
   sodipodi:type="arc" /><rect
   style="fill:#c8c8c8;fill-opacity:1;stroke:none"
   id="rect46465"
   width="30.342613"
   height="10.9937"
   x="80.166725"
   y="154.99307" /><text
   xml:space="preserve"
   style="font-size:7.7382021px;font-style:normal;font-weight:normal;line-height:125%;letter-spacing:0px;word-spacing:0px;fill:#000000;fill-opacity:1;stroke:none;font-family:Sans"
   x="83.16095"
   y="162.94769"
   id="text46423"
   sodipodi:linespacing="125%"><tspan
     sodipodi:role="line"
     id="tspan46425"
     x="83.16095"
     y="162.94769"
     style="fill:#000000;fill-opacity:1;font-family:Arial;-inkscape-font-specification:Arial">Zomba</tspan></text>

</g><g
     id="g46521"
     city_name="blantyre"><path
   transform="matrix(0.43617804,0,0,0.43617804,31.982132,143.33198)"
   d="m 85.750861,95.737251 a 5.9365983,5.9365983 0 1 1 -11.873197,0 5.9365983,5.9365983 0 1 1 11.873197,0 z"
   sodipodi:ry="5.9365983"
   sodipodi:rx="5.9365983"
   sodipodi:cy="95.737251"
   sodipodi:cx="79.814262"
   id="path46457"
   style="fill:#c8c8c8;fill-opacity:1;stroke:none"
   sodipodi:type="arc" /><rect
   style="fill:#c8c8c8;fill-opacity:1;stroke:none"
   id="rect46469"
   width="32.101604"
   height="10.9937"
   x="35.220245"
   y="185.36693" /><text
   sodipodi:linespacing="125%"
   id="text46427"
   y="192.82069"
   x="37.003529"
   style="font-size:7.7382021px;font-style:normal;font-weight:normal;line-height:125%;letter-spacing:0px;word-spacing:0px;fill:#000000;fill-opacity:1;stroke:none;font-family:Sans"
   xml:space="preserve"><tspan
     style="font-style:normal;font-variant:normal;font-weight:normal;font-stretch:normal;fill:#000000;fill-opacity:1;font-family:Arial;-inkscape-font-specification:Arial"
     y="192.82069"
     x="37.003529"
     id="tspan46429"
     sodipodi:role="line">Blantyre</tspan></text>

</g><g
     id="g46503"
     city_name="mangochi"><path
   sodipodi:type="arc"
   style="fill:#c8c8c8;fill-opacity:1;stroke:none"
   id="path46451"
   sodipodi:cx="79.814262"
   sodipodi:cy="95.737251"
   sodipodi:rx="5.9365983"
   sodipodi:ry="5.9365983"
   d="m 85.750861,95.737251 a 5.9365983,5.9365983 0 1 1 -11.873197,0 5.9365983,5.9365983 0 1 1 11.873197,0 z"
   transform="matrix(0.43617804,0,0,0.43617804,45.174573,94.532751)" /><rect
   y="124.95381"
   x="79.989944"
   height="10.9937"
   width="39.36013"
   id="rect46463"
   style="fill:#c8c8c8;fill-opacity:1;stroke:none" /><text
   sodipodi:linespacing="125%"
   id="text46439"
   y="133.25864"
   x="82.539055"
   style="font-size:7.7382021px;font-style:normal;font-weight:normal;line-height:125%;letter-spacing:0px;word-spacing:0px;fill:#000000;fill-opacity:1;stroke:none;font-family:Sans"
   xml:space="preserve"><tspan
     style="font-style:normal;font-variant:normal;font-weight:normal;font-stretch:normal;fill:#000000;fill-opacity:1;font-family:Arial;-inkscape-font-specification:Arial"
     y="133.25864"
     x="82.539055"
     id="tspan46441"
     sodipodi:role="line">Mangochi</tspan></text>

</g><g
     id="g46515"
     city_name="mulanje"><path
   sodipodi:type="arc"
   style="fill:#c8c8c8;fill-opacity:1;stroke:none"
   id="path46455"
   sodipodi:cx="79.814262"
   sodipodi:cy="95.737251"
   sodipodi:rx="5.9365983"
   sodipodi:ry="5.9365983"
   d="m 85.750861,95.737251 a 5.9365983,5.9365983 0 1 1 -11.873197,0 5.9365983,5.9365983 0 1 1 11.873197,0 z"
   transform="matrix(0.43617804,0,0,0.43617804,54.299345,136.73576)" /><rect
   y="179.01001"
   x="88.93959"
   height="10.9937"
   width="33.452103"
   id="rect46467"
   style="fill:#c8c8c8;fill-opacity:1;stroke:none" /><text
   sodipodi:linespacing="125%"
   id="text46445"
   y="186.68639"
   x="93.210594"
   style="font-size:7.7382021px;font-style:normal;font-weight:normal;line-height:125%;letter-spacing:0px;word-spacing:0px;fill:#000000;fill-opacity:1;stroke:none;font-family:Sans"
   xml:space="preserve"><tspan
     style="fill:#000000;fill-opacity:1;font-family:Arial;-inkscape-font-specification:Arial"
     y="186.68639"
     x="93.210594"
     id="tspan46447"
     sodipodi:role="line">Mulanje</tspan></text>

</g><g
     inkscape:groupmode="layer"
     id="layer1"
     inkscape:label="Labels"
     style="display:inline" /></svg>